{"title":"Sui Dhaaga Made in India 2018 Hindi 720p PRE-DVDRip x264 [MW]","magnet":"magnet:?xt=urn:btih:ec0a3c56760b745b6b214518109f57d6a6d9dde6&dn=Sui+Dhaaga+Made+in+India+2018+Hindi+720p+PRE-DVDRip+x264+%5BMW%5D&tr=udp%3A%2F%2Ftracker.leechers-paradise.org%3A6969&tr=udp%3A%2F%2Fzer0day.ch%3A1337&tr=udp%3A%2F%2Fopen.demonii.com%3A1337&tr=udp%3A%2F%2Ftracker.coppersurfer.tk%3A6969&tr=udp%3A%2F%2Fexodus.desync.com%3A6969","uploader":"MFreaky","categoryP":"video","categoryS":"movies","size":"1115911813","seeders":"78","leechers":"106","description":" <a href=\"https://pichub.site/image/EsLHX\" rel=\"nofollow\" target=\"_NEW\">https://pichub.site/image/EsLHX</a> <a href=\"\nhttps://pichub.site/image/Es2n5\" rel=\"nofollow\" target=\"_NEW\">\nhttps://pichub.site/image/Es2n5</a> <a href=\"\nhttps://pichub.site/image/EspmJ\" rel=\"nofollow\" target=\"_NEW\">\nhttps://pichub.site/image/EspmJ</a> <a href=\"\nhttps://pichub.site/image/EslYh\" rel=\"nofollow\" target=\"_NEW\">\nhttps://pichub.site/image/EslYh</a> <a href=\"\nhttps://pichub.site/image/EsP2r\" rel=\"nofollow\" target=\"_NEW\">\nhttps://pichub.site/image/EsP2r</a>\r\n\r\nIMDB <a href=\"\nhttps://www.imdb.com/title/tt7147540/\" rel=\"nofollow\" target=\"_NEW\">\nhttps://www.imdb.com/title/tt7147540/</a>\r\n\r\nVideo\r\nFormat                                   : AVC\r\nFormat/Info                              : Advanced Video Codec\r\nFormat profile                           : High@L4.1\r\nFormat settings                          : CABAC / 4 Ref Frames\r\nFormat settings, CABAC                   : Yes\r\nFormat settings, RefFrames               : 4 frames\r\nCodec ID                                 : V_MPEG4/ISO/AVC\r\nDuration                                 : 1 h 57 min\r\nBit rate                                 : 1 100 kb/s\r\nWidth                                    : 1 280 pixels\r\nHeight                                   : 544 pixels\r\nDisplay aspect ratio                     : 2.35:1\r\nFrame rate mode                          : Constant\r\nFrame rate                               : 25.000 FPS\r\nColor space                              : YUV\r\nChroma subsampling                       : 4:2:0\r\nBit depth                                : 8 bits\r\nBits/(Pixel*Frame)                       : 0.063\r\nStream size                              : 926 MiB (87%)\r\nWriting library                          : x264 core 155 r2901 7d0ff22\r\n\r\nAudio\r\nFormat                                   : AAC\r\nFormat/Info                              : Advanced Audio Codec\r\nFormat profile                           : LC\r\nCodec ID                                 : A_AAC-2\r\nDuration                                 : 1 h 57 min\r\nBit rate                                 : 162 kb/s\r\nChannel(s)                               : 2 channels\r\nChannel positions                        : Front: L R\r\nSampling rate                            : 48.0 kHz\r\nFrame rate                               : 46.875 FPS (1024 SPF)\r\nStream size                              : 136 MiB (13%)\r\nLanguage                                 : Hindi","last_updated":"2018-09-29T13:06:49.289Z","parsed":{"xt":"urn:btih:ec0a3c56760b745b6b214518109f57d6a6d9dde6","dn":"Sui Dhaaga Made in India 2018 Hindi 720p PRE-DVDRip x264 [MW]","tr":["udp://exodus.desync.com:6969","udp://open.demonii.com:1337","udp://tracker.coppersurfer.tk:6969","udp://tracker.leechers-paradise.org:6969","udp://zer0day.ch:1337"],"infoHash":"ec0a3c56760b745b6b214518109f57d6a6d9dde6","infoHashBuffer":{"type":"Buffer","data":[236,10,60,86,118,11,116,91,107,33,69,24,16,159,87,214,166,217,221,230]},"name":"Sui Dhaaga Made in India 2018 Hindi 720p PRE-DVDRip x264 [MW]","announce":["udp://exodus.desync.com:6969","udp://open.demonii.com:1337","udp://tracker.coppersurfer.tk:6969","udp://tracker.leechers-paradise.org:6969","udp://zer0day.ch:1337"],"urlList":[]}}